<?xml version="1.0" encoding="utf-8"?>
<svg viewBox="0 0 8267.72 8267.72" style="shape-rendering:geometricPrecision; text-rendering:geometricPrecision; image-rendering:optimizeQuality; fill-rule:evenodd; clip-rule:evenodd" xmlns="http://www.w3.org/2000/svg">
  <defs>
    <style type="text/css">
   
    .str0 {stroke:white;stroke-width:111.14;stroke-miterlimit:2.61313}
    .str1 {stroke:#2B2B2A;stroke-width:6.95;stroke-miterlimit:2.61313}
    .fil0 {fill:black}
    .fil3 {fill:#FEFEFE}
    .fil2 {fill:white}
    .fil1 {fill:white;fill-rule:nonzero}
   
  </style>
  </defs>
  <g id="Layer_x0020_1" transform="matrix(1, 0, 0, 1, -1694.43115234375, 26.498144149780273)">
    <path class="fil0 str0" d="M5735.69 324.48c2090.33,0 3784.89,1694.56 3784.89,3784.89 0,2090.33 -1694.56,3784.89 -3784.89,3784.89 -2090.33,0 -3784.89,-1694.56 -3784.89,-3784.89 0,-2090.33 1694.56,-3784.89 3784.89,-3784.89z"/>
    <path class="fil0 str0" d="M5735.69 1459.95c1463.24,0 2649.43,1186.19 2649.43,2649.42 0,1463.24 -1186.19,2649.43 -2649.43,2649.43 -1463.23,0 -2649.42,-1186.19 -2649.42,-2649.43 0,-1463.23 1186.19,-2649.42 2649.42,-2649.42z"/>
    <path class="fil1" d="M3962.69 6515.68l194.2 138.37 91.59 -72.03 174.16 124.09 -600.34 403.94 -185.85 -132.41 185.61 -699.43 178.4 127.11 -37.79 110.37 0.01 -0zm-49.31 144.76l-80.28 241.78 201.92 -155.11 -121.62 -86.66 -0.01 -0.01zm-627.06 30.83l-144.11 -151.98 370.43 -351.24 -224.72 -237 121.08 -114.8 368.83 388.97 -491.51 466.06zm-546.55 -628.1l-94.19 -186.89 211.67 -106.68 -102.99 -204.33 -211.66 106.68 -94.62 -187.72 604.85 -304.86 94.62 187.72 -244.61 123.29 102.99 204.33 244.61 -123.29 94.19 186.87 -604.85 304.86 -0.01 0.01zm57.36 -1395.7l53.63 232.35 116.32 6.81 48.09 208.37 -717.23 -95.69 -51.32 -222.36 602.7 -400.5 49.26 213.44 -101.46 57.57 0 0.01zm-132.9 75.67l-220.42 127.75 254 17.78 -33.58 -145.52 0 -0.01zm-489.74 -440.11l9.11 -310.86c1.79,-61.16 11.6,-110.41 29.27,-147.77 17.81,-37.19 42.53,-67.69 74.3,-91.38 31.94,-23.67 68.56,-40.42 110.18,-50.4 41.63,-9.82 85.45,-14.07 131.64,-12.71 72.35,2.12 128.23,11.96 167.63,29.69 39.41,17.56 72.15,41.4 98.25,71.51 25.94,29.95 42.99,61.85 51,95.69 10.94,46.23 15.88,88.04 14.79,125.23l-9.11 310.87 -677.05 -19.85 -0 0zm159.52 -204.68l369.81 10.84 1.5 -51.24c1.28,-43.81 -2.54,-75.01 -11.76,-93.74 -9.07,-18.72 -25.68,-33.72 -49.49,-45 -23.81,-11.11 -62.91,-17.46 -117.13,-19.05 -71.72,-2.1 -121.09,8.13 -148.26,30.68 -27.17,22.71 -41.54,61.1 -43.14,115.32l-1.53 52.18 -0 0zm-89.53 -667.68l47.46 -204.3 659.77 153.25 -47.46 204.3 -659.78 -153.25zm801.38 -627.91l-97.69 217.52 88.56 75.73 -87.61 195.07 -513.59 -509.7 93.49 -208.17 722.22 45.17 -89.75 199.82 -115.63 -15.45 0.01 -0zm-151.61 -20.04l-252.8 -31.42 191.62 167.66 61.19 -136.24 -0.01 -0zm-132.86 -640.6l120.94 -153.68 452.17 31.34 -294.46 -231.73 122.02 -155.03 532.28 418.89 -122.02 155.04 -449.14 -30.58 292.22 229.98 -121.72 154.66 -532.28 -418.89 0 -0.01zm907.44 -943.42l550.32 -319.16 83.94 144.74 -184.72 107.12 255.87 441.19 -181.03 104.99 -255.87 -441.19 -184.57 107.04 -83.94 -144.74 0 0.01zm982.24 226.81l-183.41 -652.03 335.8 -94.46c62.24,-17.51 111.41,-25.61 147.23,-24.05 35.93,1.35 68.05,13.63 96.4,36.93 28.3,23.17 48.24,55.57 59.89,97.01 10.2,36.29 11.22,69.59 3.28,100.16 -8.1,30.62 -23.37,57.85 -45.63,81.81 -14.41,15.19 -35.5,30.47 -63.54,45.55 26.26,1.3 45.97,4.44 59.32,9.36 8.78,3.27 22.76,11.62 41.79,25.1 19.07,13.64 32.24,24.35 39.63,32.6l150.63 161.58 -227.72 64.06 -163.7 -169.05c-20.88,-21.81 -37.76,-35.24 -50.72,-39.95 -17.24,-5.96 -35.19,-6.32 -53.57,-1.15l-17.76 4.99 74.44 264.61 -202.37 56.93 0 -0.01zm93.25 -444.8l85.02 -23.92c9.1,-2.56 26.05,-10.44 50.8,-23.79 12.59,-6.5 21.6,-16.4 27.03,-29.72 5.27,-13.28 5.98,-27.08 1.96,-41.35 -5.94,-21.11 -17.14,-35.32 -33.67,-42.8 -16.56,-7.63 -43.19,-6.2 -79.94,4.13l-88.5 24.9 37.28 132.54 0.01 0.01zm1031.67 137.76l-238.35 6.99 -29.51 112.72 -213.75 6.27 234.58 -684.51 228.09 -6.69 274.44 669.58 -218.96 6.42 -36.54 -110.78 -0 0.01zm-48.11 -145.16l-82.01 -241.19 -67.27 245.57 149.29 -4.38 -0.01 0zm409.7 -419.42l213.21 49.53 38.25 509.32 256.52 -440.85 207.08 48.1 -398.11 602.9 -220.9 -51.32 -96.07 -717.68 0.01 0zm934.89 247.36l500.05 253.84 -65.46 128.95 -313.02 -158.9 -48.76 96.05 290.39 147.41 -62.53 123.18 -290.39 -147.41 -60.39 118.96 322.17 163.54 -69.46 136.82 -509.19 -258.48 306.6 -603.97 -0.01 0.02zm712.75 398.61l164.59 129.53 -315.7 401.16 256.66 201.98 -103.19 131.12 -421.24 -331.51 418.89 -532.28 -0.01 0zm216.02 774.34l132.96 148.81c-22.77,23.33 -36.65,45.5 -41.83,66.44 -8.3,33.81 0.15,66.5 24.94,97.98 18.44,23.43 38.12,37.22 59.2,41.31 20.97,3.96 38.72,0.24 53.22,-11.17 13.76,-10.83 21.46,-26.53 22.81,-47.26 1.35,-20.72 -10.41,-56.83 -35.46,-108.55 -40.53,-84.91 -59.56,-153.21 -56.85,-205.1 2.51,-52.15 24.52,-94.56 66.15,-127.33 27.39,-21.55 59.54,-34 96.3,-37.26 36.78,-3.25 74.58,5.53 113.66,26.35 38.95,20.92 80.21,59.09 123.81,114.48 53.55,68.03 81.78,129.91 84.58,185.5 2.8,55.58 -20.79,108.47 -70.57,158.7l-131.06 -147.92c20.7,-22.91 31.34,-45.33 31.82,-67.18 0.44,-21.62 -8.43,-44.13 -26.68,-67.31 -15.11,-19.2 -30.39,-30.47 -46.19,-33.7 -15.66,-3.33 -29.38,-0.36 -41.03,8.81 -8.43,6.63 -12.87,16.54 -13.44,29.84 -0.91,13.37 7.07,36.78 23.91,70.68 41.08,84.07 65.82,147.89 74.43,191.47 8.62,43.6 6.89,81.68 -5.55,114.33 -12.31,32.56 -33.02,60.31 -62.14,83.22 -34.07,26.82 -72.96,42.17 -116.55,45.96 -43.69,3.89 -86.28,-5.34 -127.87,-27.6 -41.5,-22.13 -82.57,-59.02 -123.16,-110.59 -71.2,-90.47 -103.2,-166.83 -95.65,-229.16 7.31,-62.35 36.06,-116.88 86.24,-163.79l-0.02 0.01zm1026.83 781.27l114.02 328.68c24.81,71.52 26.43,131.05 4.66,178.49 -21.62,47.39 -63.99,82.13 -126.71,103.89 -64.67,22.43 -121.89,20.58 -171.73,-5.69 -49.85,-26.28 -88.6,-79.27 -116.25,-158.98l-37.53 -108.17 -237.49 82.39 -68.9 -198.61 639.92 -222 0 -0zm-203.9 293.25l16.8 48.42c13.24,38.14 29.04,62.54 47.68,73.43 18.57,10.75 38.26,12.59 58.82,5.46 20.12,-6.98 34.93,-19.63 44.13,-37.85 9.4,-18.12 7.67,-45.73 -5.15,-82.68l-19.54 -56.32 -142.73 49.52 -0.01 0.02zm430.38 466.79l16.62 218.26 -474.48 189.06 497.45 112.69 16.13 211.98 -694.46 -199.24 -17.21 -226.13 655.95 -306.63 0.01 0zm32.83 928.79l-113.73 625.93 -164.63 -29.91 38.18 -210.09 -501.8 -91.17 37.41 -205.9 501.8 91.18 38.14 -209.94 164.63 29.91 0 -0.01zm-348.62 1226.97l-104.65 181.41 -442.19 -255.07 -163.2 282.91 -144.53 -83.37 267.84 -464.32 586.72 338.44 0 0.01zm-345.17 565.59l-414.66 482.47 -126.89 -109.07 139.18 -161.94 -386.79 -332.43 136.4 -158.71 386.79 332.43 139.07 -161.82 126.89 109.06 0.01 0.01zm-643.7 676.37l-262.19 167.26c-51.59,32.9 -97.83,52.49 -138.64,58.89 -40.76,6.18 -79.91,2.9 -117.35,-10.06 -37.54,-13.09 -71.98,-33.95 -103.64,-62.76 -31.54,-28.89 -59.68,-62.76 -84.53,-101.71 -38.93,-61.03 -62.21,-112.76 -69.71,-155.3 -7.63,-42.46 -6.33,-82.95 3.88,-121.45 10.19,-38.3 26.96,-70.33 50.45,-95.98 32.08,-35.05 63.87,-62.63 95.25,-82.65l262.19 -167.26 364.29 571.04 0 -0.01zm-258.96 -16.81l-198.98 -311.9 -43.21 27.57c-36.96,23.57 -60.61,44.28 -70.9,62.44 -10.39,18.04 -13.45,40.2 -9.38,66.22 4.2,25.93 20.93,61.85 50.11,107.57 38.59,60.49 74.81,95.57 108.74,105.35 34.06,9.7 73.89,0 119.62,-29.17l44.01 -28.08 -0.01 0.01z"/>
    <polygon class="fil2 str1" points="5787.59,6888.14 5898.78,7221.63 6260.75,7220.96 5967.5,7426.4 6080.02,7759.48 5787.59,7552.96 5495.16,7759.48 5607.67,7426.4 5314.43,7220.96 5676.4,7221.63 "/>
    <g id="_105553268923712">
      <path class="fil3" d="M6141.65 4438.33c14.71,30.28 48.77,40.55 48.77,103.75 -15.97,-10.75 -30.57,-25.02 -40.9,-41.2 -12.09,-18.93 -70.04,-135.67 -70.54,-158.26 29.09,19.58 47.78,65.05 62.67,95.7zm224.8 -78.11c-6.93,25.88 -17.79,18.11 -41.03,29.3 -24.12,-36.02 -49.03,-30.81 -52.81,-76.24 37.78,10.13 35.42,46.94 93.83,46.94l0 -0zm-275.77 -234.76c-27.92,0 -36.18,2.09 -54.95,4.77 -76.73,10.94 -19.73,-56.11 2.17,-75.13 14.93,10.04 18.28,10.06 23.43,29.34 13.69,0 73.89,-14.83 111.49,41.03l-82.13 0 -0.01 -0.01zm-244.43 43.12c13.08,-20.52 10.7,-7.08 15.61,-25.52 -23.25,-12.3 -37.67,-19.33 -56.19,-37.7l-8.53 -9.07c-13.79,-17.26 -8.3,6.37 -11.57,-23.59l40.15 30.22c9.67,7 12.77,6.56 22.64,12.58 18.48,11.26 5.75,-2.16 14.94,14.37 8.18,14.73 0.07,1.12 4.69,12.91 0.54,1.37 0.94,3.03 1.5,4.38l3.6 8.14c11.74,22.4 38.49,79.7 65.31,40.09 19.49,-28.79 -25.7,-18.57 -4.89,-39.13 10.08,-9.96 5.81,-5.91 22.17,-7.28 8.43,17.56 11.13,58.91 33.94,66.78 1.33,0.46 9.78,1.38 11.2,1.58 41.06,5.98 20.39,-13.85 45.13,-0.19 16.28,8.98 8.9,2.99 3.62,25.71 35.3,-2.93 17.86,-12.25 41.07,-29.34 0,23.37 -0.76,45.49 -15.27,60.97 -20.96,22.36 -9.87,3.61 -57.65,10.44 -16.11,2.3 -36.74,-2 -56.28,-6.73 -42.85,-10.39 -80.79,-38.29 -82.03,17.43 -21.7,-0.48 -35.24,-4.66 -50.23,-14.28 -68.44,-43.97 -69.99,-7.6 -68.6,-46.07 0.81,-22.64 7.38,-33.94 -13.22,-41.63 -31.74,-11.86 -166.47,31.57 -202.37,31.57 9.61,-8.3 6.56,-5.62 18.35,-10.93 76.61,-34.44 22.05,-17.39 58.99,-58.38 4.93,-5.46 10.31,-8.98 15.89,-13.45 25.01,-20.08 10.5,-6.2 24.13,-34.56 74.48,0 56.37,-25.6 97.31,8.11 26.81,22.07 55.07,39.85 61.08,62.26 -27.65,0 -26.26,1.05 -46.95,5.87 4.82,18.08 11.38,23.51 35.24,23.51 19.26,0 28.24,-24.96 37.23,-39.08l-0 0.01zm273.74 -107.67l-23.43 0c2.11,-12.3 9.68,-10.54 23.43,-11.69l0 11.69zm140.87 5.92c29.25,-6.83 30.04,-17.6 70.37,-17.6 -8.68,11.78 -18.8,19.05 -35.22,23.43 0.59,26.86 19.91,56.46 46.95,58.72 -34.17,29.53 -6.84,20.77 -5.87,64.5 -20.44,4.77 -39.28,6.68 -52.76,-11.74 -6.52,-10.94 3.27,-9.37 7,-26.74 7.27,-33.75 -30.46,-13.59 -30.46,-90.57l0 -0.01zm-322.78 -211.29c-30.3,-8.11 -13.06,-8.6 -11.7,-11.68 7.89,-3.52 -3.35,-8.49 6.99,-0.31 12.21,9.65 1.57,0.3 4.7,11.99l0 0zm52.81 -58.63c-11.95,10.33 10.56,0.17 -10.05,8.35 -0.94,0.38 -2.81,1.21 -3.78,1.39 -0.88,0.15 -2.84,0.34 -3.68,0.29 -9.81,-0.59 -6.51,-2.85 -11.78,-10.02l29.29 0 0 -0.01zm-123.18 11.71c-6.89,-25.82 -36.85,-38.81 9.04,-73.06 52.11,-38.9 10.77,-50.14 67.19,-50.14 -8.2,30.61 -46.94,41.7 -46.94,64.52 0,38.61 -5.31,49.25 35.2,58.7 -13.22,17.97 3.76,9.42 -23.47,11.69 -0.39,17.53 -20.88,70.87 -25.08,75.06 -15.91,15.85 -12.15,1.33 -37.01,4.28 -37.16,4.4 -7.59,15.64 -61.08,2.82 1.24,-0.78 3.17,-1.42 4,-1.85l18.46 -10.84c1.03,-0.7 2.33,-1.81 3.36,-2.51 11.12,-7.54 -0.83,-1.16 14.44,-9.04 3.35,-1.74 8.1,-2.94 12.54,-5.06 0,-47.39 11.02,-37.14 29.34,-64.56l0 0zm240.54 -117.38c-3.3,30.33 6.8,10.7 -11.69,17.6 -6.18,-12.84 -10.23,-23.07 -11.74,-41.03 12.69,2.97 22.67,5.6 37.76,9.15 25.78,6.05 20.18,-4.31 26.74,20.14 -22.76,-1.9 -15.28,-5.29 -41.08,-5.87l0 0.01zm504.69 -76.26c0,-1.65 -4.03,-10.69 -5.87,-17.58 17.26,12.71 14.27,16.52 5.83,52.76l-11.7 0c3.75,-16.07 11.74,-23.8 11.74,-35.19zm-0.04 -52.78c-3.31,30.26 6.8,10.65 -11.7,17.56l11.7 -17.56zm82.17 1032.72c27.58,-117.3 10.06,-65.41 100.37,-146.08 16.78,-14.98 -2.97,-5.67 25.85,-15.2 12.46,-4.13 21.04,-6.26 32.19,-8.86 11.24,21.24 8.41,13.89 21.96,30.85 27.7,34.65 -8.25,54.63 40.67,55.91 13.15,0.34 13.93,-12.14 23.08,14.83 9.95,29.31 2.43,58.22 10.67,89.55 6.91,26.28 24.18,34.81 26.86,67 -35.95,-9.64 -18.16,-34.04 -70.42,-35.2 3.04,36.57 27.98,39.77 54,81 36.1,57.23 37.83,48.32 80.67,83.64 14.93,12.31 -3.01,2.87 15.5,13.85 7.3,4.35 44.41,12.56 50.94,13.61 43.84,7.1 71.95,7.45 121.67,7.45l0 -11.79c-40.19,-3.33 -53.35,-12.42 -84.75,-20.88 -18.06,-4.86 -30.17,-0.46 -48.24,-4.58 -24.52,-5.6 -0.29,-8.92 -37.18,-9.74l0 -52.82c-23.08,-0.51 -13.76,1.62 -29.35,-5.87 -2.83,-34.1 1.81,-71.19 -24.76,-98.46 -39.87,-40.94 -33.25,-26.87 -28.05,-89.26 20.88,5.6 56.65,34.84 58.63,58.67 18.16,-4.21 28.48,-11.56 42.34,-22.26 68.18,-52.63 -27.33,-97.58 -18.82,-130.34 6.81,-10.15 12.8,-23.74 28.94,-21.83 26.2,3.1 1.9,6.3 1.92,28.39 0.01,23.75 33.68,25.77 33.68,-30.01 21.39,-1.78 53.64,-15.61 70.51,-23.35 20.85,-9.59 37,-23.96 50.34,-43.57 45.47,-66.87 17.01,-75.76 2.37,-138.46 15.31,-22.8 19.98,-12.36 35.22,-35.24 -40.2,-19.27 -38.57,6.44 -58.67,-23.43 27.5,-6.41 21.94,-10.62 41.03,-23.47 -4.17,17.87 -7,14.18 0,29.34 18.31,-9.65 18.41,-11.74 46.94,-11.74 0.94,41.75 17.6,18.18 17.6,76.29 28.7,0 45.41,-0.61 47.71,-26.49l-5.6 -26.68c-5.31,-9.6 -11.62,-15.87 -18.59,-28.98 36.69,-9.8 20.09,-31.04 50.87,-43 33.86,-13.15 35.09,5.1 62.26,-25.76 30.12,-34.2 61.79,-68.91 62.91,-118.99l11.7 0c0,35.84 5.37,86.14 -11.14,117.91 -11.38,21.88 -15.65,6.62 -18.15,46.41 -2.81,44.95 -19.83,50.66 -50.35,72.86 -28.98,21.08 -115.66,21.74 -72.94,85.54 12.95,-4.68 7.1,-4.63 15.81,-13.58 0.84,-0.87 1.81,-2.34 2.67,-3.2 0.85,-0.85 1.9,-2.26 2.8,-3.07l92.71 -36.37c53.58,-19.68 40.96,-78.89 32.76,-113.94 26.16,-0.59 35.72,-8.56 52.82,-17.6 -5.39,-20.26 -20,-30.94 -35.2,-41.12 3.96,-11.98 1.83,-5.04 4.72,-8.2l7.01 -3.5c-2.44,-29.23 -19.96,-38.46 11.74,-46.92 0,-33.47 -11.07,-65.88 -17.6,-93.93 -33.39,8.89 -14.03,4.52 -48.52,-3.5l-18.38 -3.45c-12.85,-4.85 -0.8,-9.1 -21.12,-4.8 10.85,-16.12 70.77,-74.04 90.31,-79.79 1.92,-0.57 80.83,-7.59 80.95,-7.59 33.37,-1.49 30.37,11.14 69.32,11.14 17.74,-26.5 29.53,-55.28 70.37,-58.67 5.3,19.85 8.7,24.16 29.53,13.19 18.41,-9.69 2.09,-11.81 29.15,-19.06 -5.73,21.37 -3.46,13.59 -20.61,26.26l-66.09 57.15c-27.56,26.98 -29.8,58.97 -19.83,99.39 6.02,24.41 -0.2,9.24 12.66,28.44 26.14,-6.96 18.13,-11.69 31.89,-32.7 15.53,-23.72 30.59,-23.17 41.48,-46.62 3.18,-6.83 7.07,-16.56 8.63,-21.32 6.96,-21.12 3.86,-22.19 -5.69,-40.2 15.58,-7.48 6.27,-5.35 29.35,-5.87 -15.52,-14.79 -4.54,1.63 -11.74,-17.6 71.96,-16.77 81.03,2.63 113.16,-21.53 38.25,-28.76 54.37,-25.61 103.96,-37.15 -4.24,-18.25 -7.49,-17.02 -11.74,-35.24 18,-26.81 20.21,-5.49 23.47,-35.19l11.7 0c7.54,18.62 6.46,7.5 25.59,15.51 1.31,0.54 2.93,1.07 4.22,1.64 14.97,6.65 27.41,23.43 46.5,18.06l41.11 -41.1c-27.23,-40.76 -36.16,-19.52 -62.16,-27.61 -30.78,-9.57 -69.17,-77.83 -207.81,-66.3l-11.7 0c-39.87,3.31 -74.65,5.87 -123.23,5.87 -3.04,-36.54 -29.32,-37.46 -69.5,-34.44 -68.55,5.17 -58.31,-24.33 -109.66,-32.87 -39.79,-6.62 -104.57,-25.8 -108.42,20.37 -26.47,0 -49.09,0.06 -75.09,-2.04 -41.96,-3.38 -10.47,9.57 -48.09,19.65 -15.19,-31.61 0.83,-51.78 -41.43,-64.4 -73.99,-22.1 -44.12,33.97 -112.31,1.11l-44.52 -8.49c-50.57,-6.53 -34.71,-15.5 -18.84,-45.58l-22.06 -24.89c-11.78,-8.94 -17.75,-9.37 -36.71,-10.26 -90.54,-4.2 -35.33,-59.56 -129.19,-0.21 -48.26,30.52 -136.19,11.21 -185.35,49.37 -37.3,28.94 -2.97,19.58 -61.91,32.03 -15.31,3.24 -25.87,13.01 -29.4,15.76l-57.62 26.2c-5.48,-20.52 -2.23,-13.19 -17.62,-23.47 -0.44,0.94 -0.12,2.61 -0.17,3.12l-0.49 6.69c-3.59,18.95 2.61,17.41 -22.78,19.54 -2.54,-30.37 -8.32,-29.96 -29.36,-41.07 -13.51,9.02 -14.24,10.03 -23.67,23.31 -30.67,43.21 -41.32,49.85 -11.57,94.04 -26.26,-6.13 -33.83,-17.41 -65.18,-22.81 -18.44,-3.18 -22.72,-2.48 -38.81,-8.13 -22.56,-7.93 -2.48,-7.78 -30.97,-10.14 9.97,18.92 13.05,19.72 23.47,35.2 -16.96,3.96 -38.81,7.88 -61.94,8.22 -33.42,0.48 3.18,0.26 -23.33,-4.7 -29.83,-5.58 -81.29,47.59 -102.46,37.56 -7.49,-23.8 -10.45,19.3 3.88,-5.27 5.2,-8.92 15.51,-1.39 0.8,-16.74 -9.02,-9.39 -24.76,-12.15 -34.25,-2.13 -28.7,30.29 42.59,28.11 -40.84,47.61 10.3,-21.39 10.19,-24.46 -7.5,-39.14 -23.28,-19.3 -51.7,-26.77 -82.5,-35.18 -58.7,-16.02 -23.99,-10.43 -57.52,-30.49 -19.87,-11.89 -58.76,-9 -80.09,-5.44l-113.85 44.6c-16.39,5.74 -16.38,1.2 -21.95,19.15l-5.69 23.63c-46.21,100.8 -177.43,83.84 -100.38,198.94 42.94,0 30.43,-10.03 58.69,-17.6 26.5,50.05 24.44,45.67 0.04,58.63l0 -35.2c-17.89,0.4 -21.43,2.65 -35.25,5.87 -9.26,39.76 0,24.02 0,64.56 -69.88,1.56 -37.54,36.87 -87.97,41.07 10,-47.04 -40.56,-25.88 -49.74,-100.15 -2.04,-16.59 -8.44,-18.35 -8.94,-40.69 -9.94,2.3 -12.86,2.54 -22.78,7.29 -39.53,18.95 -18.38,7.01 -41.82,4.45 0.96,11.47 13.51,50.17 17.6,58.67 -54.01,0 -17.57,14.19 -58.69,17.6l-1.03 36.29c-0.29,1.56 -1.85,6.11 -1.85,7.56 0.04,34.32 66.69,17.22 74.63,-50.96l22.15 24.71c-32.14,3.52 -6.7,-4.72 -18.32,11.9 -0.96,1.37 -3,6.28 -3.54,7.76 -0.37,0.99 -0.84,2.82 -1.09,3.78l-0.4 9.61c0.04,0.63 0.53,2.24 0.59,2.87l-6.57 28.67c31.11,-0.69 54.7,-11.74 88.01,-11.74 -13.4,18.21 -0.77,3.59 -17.39,11.89l-16.15 7.31c-22.62,10.95 -10.39,10.09 -42.73,10.09 4.42,53.31 41.07,-7.92 41.07,88.03 -87.48,0 -104.91,-30.53 -105.48,76.78 -0.15,28.76 13.86,38.37 40.94,40.62 -8.19,35.04 -36.3,42 -51.36,83.56 -10.16,28.05 -4.74,18.94 -28.24,36.29 -14.46,10.69 -22.65,19.24 -32.07,32.48 -54.98,77.25 -14.3,76.77 -30.35,139.6 -5.3,20.75 -9.96,31.62 1.79,53.48 7.91,14.69 18.53,22.43 30.26,34.46 67.18,68.81 61.25,88.65 171.41,68.81 22.66,-4.08 37.27,-11 51.88,-13.49 38.8,-6.61 28.74,2.68 46.94,14.78 13.32,8.85 31.91,9.13 50.96,13.58 13.82,59.28 -27.54,54.96 20.79,102.44 16.48,16.19 39.01,79.92 37.23,102.4 -1.43,18.04 -24.98,39.1 -27.37,66.25l104.3 268.76c30.98,0 104.55,-11.11 124.09,-22.65 54.72,-32.31 63.04,-91.31 73.08,-108.84 10.62,-18.55 2.76,-1.79 19.37,-15.91 16.9,-14.37 8.81,-37.53 8.06,-53.78 -1.87,-41.17 56.21,-46.41 69.11,-68.5 22.77,-38.92 -10.02,-88.89 -12.21,-123.9 -5.64,-90.14 154.57,-138.44 164.49,-257.82 -43.92,0 -74.05,13.22 -105.63,5.87l0 -11.7c45.97,-10.72 91.02,-28.7 128.57,-53.33 36.87,-24.19 75.94,-33.33 88.55,-87.52 -16.59,-24.85 -26.2,-18.96 -41.07,-41.05 17.39,0 121.85,5.99 131.17,9.62 38.24,14.89 31.7,59.71 80.03,60.79 0.74,33.2 15.89,69.28 26.77,96.45 11.35,28.36 21.78,59.08 43.67,73.72 9.16,-2.45 24.41,-8.59 26.86,-20.11 0.4,-1.86 1.56,-2.33 2.48,-3.39l-0.07 0.05z"/>
      <path class="fil3" d="M4072.15 4319.13c-15.19,-10.24 -15.64,-6 -17.58,-29.32 14.31,10.53 12.58,8.03 17.58,29.32zm367.69 -215c0.17,0.89 0.34,2.84 0.29,3.69 -0.59,9.81 -2.85,6.5 -10.02,11.78l0 -29.3c9.55,11.04 4.34,-16.33 9.73,13.83zm-3.86 -19.74c0.44,-16.28 2.04,-10.83 11.7,-17.56 -4.43,16.56 1.2,8.56 -11.7,17.56zm58.67 5.87c-4.58,-8.46 -4.7,-9.81 -5.89,-23.43l29.32 0c-13.78,20.48 -7.44,17.62 -23.43,23.43l-0 0zm-64.57 -76.24c19.63,10.4 16.51,4.4 29.35,23.43l-64.52 0 35.19 -23.43 -0.01 0zm-375.52 -404.87c46.77,31.46 52.62,-8.66 76.24,23.42 -14.31,0 -39.91,1.56 -52.84,0.06 -19.44,-2.28 -21.2,-3.36 -23.4,-23.47l0 -0zm252.32 11.68c0,-25.42 -3.28,-12.41 11.7,-23.43l-0.01 23.43 -11.69 0zm-234.74 698.3c14.27,9.62 88.04,95.05 93.57,111.17 9.75,28.43 -8.92,23.27 37.82,50.82 82.66,48.75 109.81,21.9 146.07,47.48 26.5,18.7 43.62,17.87 67.12,32.72 24.61,15.56 8.91,12.37 23.93,28.87 0.09,0.1 23.7,18.81 26.22,20.74 19.28,14.72 38.96,22.11 61.15,12l7.65 -4.53c43.24,64.57 -21.6,67.88 -29.19,129.25 -9.23,74.54 6.51,75.72 43.43,138.17 24.13,40.81 16.76,46.43 60.15,68.96 36.35,18.86 41.56,36.18 36.85,91.62 -6.69,78.67 -31.49,161.37 -41,217.26 -17.4,102.26 -12.17,53.83 0.17,99.92 -13.43,4.87 -8.9,1.57 -15.8,14.02l-5.53 32.45c-0.18,0.98 -0.54,2.63 -0.77,3.61 -22.19,93.65 49.95,180.65 139.49,137.73 -27.34,-37.48 -72.89,-40.09 -28.67,-99.07l7.83 -9.78c0.76,-0.95 1.91,-2.27 2.65,-3.22l12.32 -17.05c-12.11,-18.14 -17.55,-13.08 -23.47,-35.19 36.67,-9.8 23.48,-33.25 52.81,-41.07 -1.7,-20.55 -5.88,-19.2 -17.6,-29.34 45.3,0 22.13,3.2 38.29,-20.41 17.07,-24.93 8.58,-9.53 40.31,-18.34 17.95,-4.99 26.26,-10 30.26,-28.5 7.38,-34.16 -17.39,-19.67 9.86,-31.08 21.76,-9.12 22.19,3.52 40.89,-17.85 5.98,-6.85 5.07,-8.49 11.83,-17.51 1.04,-1.38 4.1,-5.23 5.23,-6.51 86.44,-97.41 21.27,-83.79 69.59,-112.31 47.24,-27.89 69.1,-7.58 94.32,-70 10.75,-26.58 9.26,-59.72 21.39,-90.11 11.51,-28.81 76.13,-68.97 37.79,-110.3l-76.24 -35.36c-29.16,-6.09 -102.45,-23.3 -117.49,-46.78l-7.85 -15.62c-37.77,-73 -72.52,-33.04 -120.61,-78.9 -27.9,-26.61 -19.41,-39.69 -71.46,-40.06 -55.39,-0.39 -55.04,-11.27 -95.77,-16.46 -30.39,-3.86 -61.3,12.14 -68.79,40.16 -33.06,-0.74 -27.88,-11.24 -52.88,-5.78 -26.74,5.84 -17.12,4.14 -40.95,-11.82 0,-35.46 0.75,-47.86 -5.87,-76.29 -24.02,-5.59 -27.56,-5.87 -58.69,-5.87 0.91,-41.09 16.69,-29.22 17.6,-70.42l-46.99 0c-30.83,46.05 -67.77,45.33 -85.9,21.41 -22.8,-30.11 -7.94,-71.33 -7.94,-109.38 20.51,-10.86 29.53,-24.97 56.83,-22.08 23.71,2.52 46.21,18.43 54.65,-13.13 27.97,0 58.28,1.7 73.49,26.22 7.63,12.3 4.13,16.48 15.73,31.22 9.56,12.15 13.2,14.88 28.13,18.84 14.11,-60.59 -26.57,-68.65 -1.73,-100.99 9.97,-12.97 22.09,-17.31 35.56,-29.47 4.85,-4.38 14.18,-13.04 17.93,-17.28 10.82,-12.21 6.3,-4.78 11.09,-18.26 29.38,-82.67 12.12,-48.18 57.66,-77.28 29.86,-19.09 0.41,-15.81 25,-39.56 6.26,-6.04 33.17,-17.48 42.21,-22.29 2.27,27.27 -6.3,10.26 11.76,23.47 27.65,-7.37 68.65,-24.07 76.31,-52.86 -18.94,-9.08 -31.97,-5.87 -58.67,-5.87 0,-31.02 -3.37,-35.39 -23.47,-52.77 26.03,2.17 30.79,12.7 46.92,23.47 17.01,-12.43 8.37,-11.14 13.55,-15.81l45.11 -25.26c-0.91,41.19 -36.11,51.19 -5.02,62.93 1.28,0.48 79.16,13.3 81.34,13.36 -0.76,-34.48 -12.11,-51.97 -41.08,-58.72 0,-90.53 -7.91,-67.52 -59.04,-105.27 -31.11,-22.96 -27.74,-84.37 -75.96,-88.37 -5.1,19.09 -10.24,24.23 -29.32,29.34 -11.24,-7.55 -18.84,-25.2 -20.88,-32.8 -3.72,-13.91 -10.05,-15.19 -26.8,-24.96 -37.57,-21.93 -43.48,-18.52 -99.04,-18.52 0.61,27.37 7.51,22.19 5.24,46.28 -2.08,22.11 -8.88,14.94 -11.11,41.79 23.63,6.31 19.1,10 29.34,29.32 -11.99,17.87 -23.54,23.44 -41.07,35.18 0.59,26.57 5.87,23.33 5.87,52.81l-17.56 0c-1.58,-19.07 -11.85,-42.73 -25.11,-57.03l-86.42 -36.82c-13.3,-5.52 -17.15,-4.22 -31.73,-9.35 -39.24,-13.8 -6.93,-21.72 -44.51,-31.76 0,-47.19 26.45,-57.48 52.64,-82.26l47.06 -29.17c-3.98,18.7 -5.92,9.11 0,23.47 35.48,8.26 13.96,6.48 45.17,-1.44 23,-5.85 17.6,1.44 48.76,1.44 -5.43,-20.39 -20.7,-35.68 -41.07,-41.13l0 -23.43c26.09,-6.09 27.1,-5.94 26.42,-31.83 -0.63,-24.27 -0.99,-20.9 -2.95,-44.44 26.65,6.22 27.06,-8.2 29.3,17.6 12.85,-3.43 15.29,-8.14 23.47,-17.6 4.45,16.65 -1.22,8.59 11.74,17.6 -7.75,28.93 -10.91,3.83 -11.74,41.07 41.69,0 27.78,-10.91 64.55,-11.74 -5.28,19.69 -3.19,10.31 -15.27,25.76 -23.89,30.5 -57.78,11.65 -61.01,50.53 51.5,11.99 44.32,-17.54 86.7,18.89 19.62,16.86 48.77,33.91 83.51,33.91 4.53,-41.64 0.67,-0.25 17.79,-24.12l3.43 -25.27c-11,-28.8 -29.17,-9.9 -32.96,-44.5 22.75,6.09 21.83,16.51 41.07,29.34 16.83,-25.14 28.53,-16.26 29.34,-52.86 -5.93,-1.58 -49.76,-22.02 -55.81,-26.35 -31.7,-22.72 7.92,-36.19 -63.82,-71.14 -24.54,-11.95 -52.07,-20.11 -71.98,-39.49 -17.56,-17.09 2.38,-6.51 -21.28,-19.8 -30.6,-17.17 -72.9,-2.37 -96.33,-6.54 -17.22,-3.06 4.04,-9.66 -29.47,-5.69 -33.18,3.93 -53.71,34.03 -54.49,69.32 22.89,8.28 1.27,-1.39 16.47,12.87 15.27,14.33 30.92,16.72 48.08,28.2 -1.72,20.52 -13.09,34.95 -22.61,46.63l-12.56 -40.8c-4.26,0.36 -17.79,2.92 -19.13,2.82l-51.29 -67.35c9.93,-13.51 42.3,-28.3 38.95,-47.12 -3.99,-22.42 -51.33,-9.67 -68.33,-5.71 0,8.39 0.86,21.86 0.22,29.59 -0.76,9.19 -1.03,7.8 -2.67,14.92l-3.39 8.32c-5.27,22.41 -5.89,23.28 -5.89,52.79 -28.11,0.63 -46.88,13.21 -58.67,29.39 35.47,0.78 17.21,-3.79 23.47,11.69 -27.35,13.13 -34.95,0.67 -64.5,0l0 -11.69c18.04,-0.4 20.81,6.47 46.94,-29.39 -37.69,-25.24 -59.44,-20.69 -54.91,-79.26 2.44,-31.69 -6.36,-31.93 -30.96,-19.05 -33.07,17.31 -21.39,26.28 -19.79,33.78 -9.73,-6.54 -11.74,-12 -25.02,-13.69 -33.78,-4.28 24.35,-1.11 -12.43,1.94 -19.83,1.64 -43.2,-11.42 -62.54,-23.17 -33.62,-20.43 -85.11,-26.7 -122.98,-17.89 -2.87,12.36 -5.22,23.96 -9.28,38.55 -1.24,4.44 -3.68,11.39 -4.14,16.14 -2.24,23.1 12.26,23.12 42.78,39.24 26.76,-14.14 25.77,-20.97 46.92,-35.21l29.34 76.24c-68.48,-16 -29.46,-14.39 -110.98,-18.99l-7.75 -0.41c-20.84,-3.48 -10.02,-3.85 -27.93,-15.81 -25.79,17.24 -1.73,8.33 -31.38,8.78 -28.97,0.43 -83.56,20.24 -97.18,19.89 -11.76,-0.31 -51.47,-14.14 -69.51,-18.37l-149.7 -20.48c-58.02,-11.22 -74.37,-11.84 -129.94,25.4 -47.64,31.94 -33.93,9.17 -50.43,31.74 8.23,30.9 28.89,22.4 46.94,46.92 -36.21,-8.47 -43.39,-0.49 -70.42,17.6 26.43,39.66 31.81,35.26 93.89,35.26 -15.73,21.37 -21.37,9.11 -43.92,20.56 -13.38,6.8 -18.73,20.6 -26.49,32.22 50.7,75.9 38.59,15.5 64.57,64.57l46.92 0c-1.87,22.48 -8.52,28.44 -42.95,45.02 -28.26,13.6 -34.12,6.03 -50.94,31.27 49.93,0 98.71,-32.4 129.11,-52.81 21.86,5.85 45.75,31.47 46.97,-23.52 -30.32,-3.3 -10.7,6.8 -17.6,-11.69 6.33,-7.29 6.85,-7.76 11.74,-17.6 17.97,13.22 9.43,-3.76 11.7,23.47 8.96,-4.28 15.19,-5.69 24.51,-10.91 4.17,-2.33 13.13,-8.68 18.06,-11.33l76.46 2.97c28.3,4.31 54.19,6.68 85.1,38.12 14.91,15.17 9.81,16.03 27.38,31.31 43.36,37.72 1.19,44.33 44.33,73.07 0,-27.67 -1.04,-26.26 -5.87,-46.95 20.5,13.8 11.6,10 23.82,28.94 9.61,14.88 14.29,15.37 22.07,30.74 47.23,93.23 55.03,11.57 53.67,151.69 -0.5,51.72 0.83,44.89 21.09,78.67 19.35,32.24 14.24,36.69 47.12,58.51 30.81,20.46 27.06,21.99 46.11,53.64 29,48.19 -2.5,24.93 41.43,64.19 19.74,17.65 25.54,33.8 49.82,49.98 -3.48,-41.93 -38.61,-68.78 -46.97,-99.78l-0.03 0.01z"/>
      <path class="fil3" d="M5345.48 3374.4c-11.36,-3.04 -9.07,-1.11 -17.58,-5.89 35.1,-66.05 108.77,-77.76 129.09,-105.63 -32.9,-17.4 -55.13,-17.44 -88.04,0 -27.6,-18.54 -17.15,-18.37 -37.2,-8.23 -0.82,0.41 -2.44,1.85 -3.86,2.36 -20.69,-28.22 -21.22,5.64 -11.74,-35.2 -29.57,-6.89 -49.44,-17.47 -81.39,-24.24 -50.35,-10.67 -203.68,1.25 -243.21,10.67 -26.66,6.35 -23.03,5.76 -33.39,25.31 -39.81,-9.3 -28.93,-6.34 -67.88,2.49 -41.46,9.41 -71.72,-7.5 -111.43,17.72 -46.38,29.46 -64.57,20.04 -84.76,50.24 12.63,17.26 5.91,4.61 12.48,11.02 9.43,9.19 5.1,-2.13 10.98,12.43 -18.92,9.08 -25.52,8.85 -50.37,14.16 -24.83,5.3 -30.15,10.71 -49.38,15.18 3.94,47.54 10.35,9.95 28.71,43.46 35.78,65.33 179.87,-27.46 200.16,120.85 4,29.17 2.07,23.94 23.45,35.25 -27.3,51.41 10.28,53.09 35.2,41.07 -6.17,15.25 -1.39,2.8 -11.4,12.02 -4.95,4.56 -2.27,-4.04 -12.08,11.48 -27.06,42.78 41.98,157.5 98.27,177.52 14.29,5.09 22.69,8.67 36.76,16.09 14.54,-21.71 11.48,-13.94 20.08,-44.48 7.65,-27.2 11.28,-26.66 22.73,-47.67 37.14,-68.19 23.08,-11.87 81.3,-59.52 39.95,-32.7 39.72,-26.88 93.11,-41.83 33.44,-9.36 66.96,-30.9 87.9,-52.94 -2.35,-28.33 -17.97,-42.12 -0.45,-64.56 7.6,-9.73 13.07,-7.13 24.36,-23.02 14.65,-20.63 -7.39,-15.78 23.04,-23.9l0 -17.66c-15.24,-1.26 -17.74,2.42 -41.08,-29.3 29.96,2.5 7.9,4.47 35.22,11.74 -0.61,-27.37 -6.87,-31 -17.62,-46.97l0.02 -0.01z"/>
      <path class="fil3" d="M7287.76 4571.43c0,0 9.33,-0.78 9.5,-0.43 7.63,15.06 -1.13,1.04 -2.54,1.56 -0.52,0.19 -6.73,0.81 -6.98,-1.13l0.01 0zm-46.99 -58.65l46.99 58.65 -46.99 -58.65zm-46.99 -58.66c0,12.6 7.61,38.36 11.74,46.97 30.35,-2.52 12.54,-10.93 29.01,-6.67 22.28,5.75 -6.87,11.28 -11.41,12.5 0,43.77 13.14,36.56 -5.87,76.33 28.29,-10.22 -4.66,-1.53 23.47,-11.74 10.78,16.09 10.95,21.46 35.26,23.47 1.63,-6.11 34.44,-53.66 -11.74,-58.73 6.2,-12.85 10.24,-23.08 11.74,-41.08 -32.11,-8.57 -2.71,-3.83 -30.43,-22.39 -1.45,-0.97 -5.97,-3.38 -7.48,-4.26 -5.39,-3.15 -11.47,-6.26 -14.9,-8.56 13.53,-25.47 24.06,-49.35 -17.64,-52.81 -2.07,8.86 -11.74,41.18 -11.74,46.97l-0.01 -0z"/>
      <path class="fil3" d="M7522.44 4952.83c-14.37,-1.19 -29.78,-6.35 -39.55,-13.72 -30.35,-22.87 1.1,3.14 -13.21,-56.69 -24.33,-0.54 -23.19,-3.27 -39.94,-3.4 -36.11,-0.29 -7,9.66 -31.02,0.86 -25.25,-9.24 8.07,-20.27 -34.7,43.61l-7.69 -4.57c-1.39,-0.68 -6.28,-3.26 -7.92,-3.78 -12.92,-4.13 -1.35,-4.23 -16.94,-1.28 -35.85,6.8 -61.83,51.04 -71.09,64.44 -15.41,22.29 -21.86,10.29 -60.74,27.26 -90.76,39.62 -29.11,103 -23.91,159.55 1.58,17.22 -2.36,33.97 -1.07,39.01 17,65.81 193.77,-66.87 254.4,-17.01 2.92,2.4 20.19,25.66 22.98,29.83 17.43,-4.64 9.48,-2.32 23.47,-11.74 -3.59,15.37 -5.37,17.26 -11.74,29.34 85.25,0 -0.49,46.94 129.12,46.94 38.79,0 55.06,-25.34 68.45,-54.79 35.06,-77.01 37.19,-17.53 37.19,-138.87 0,-12.34 -63.15,-85.91 -77.35,-98.7 -31.4,-28.28 -12.83,-26.87 -30.09,-57.93 -13.7,-24.62 -24.37,-15.99 -33.37,-54.65l-17.64 0c-0.56,24.57 -9.46,59.33 -17.6,76.28l-0.03 -0.01z"/>
      <path class="fil3" d="M4518.1 3433.09l-117.33 -0.02c8.53,-7.38 5.8,-9.3 23.49,-11.64l82.15 5.76c8.95,3.11 7.02,2.96 11.69,5.91l0 -0.01zm0 0c41.32,-4.46 -5.7,-6.66 35.24,-17.58 -7.51,-28.22 -21.05,-13.38 -1.74,-30.52 10.07,-8.93 22.3,-9.03 33.74,-19.63 15.43,-14.31 9.04,-27.06 28.39,-36.14l65.21 -34.54c13.24,-7.99 21.2,-10.89 34.6,-18.21 50.65,-27.7 60.2,-17.78 62.78,-48.77 -87.23,-20.3 -133.3,-22.72 -229.12,-17.85 -23.31,1.18 -28.45,5.51 -45.94,13.02 -46.83,20.12 -14.14,-5.69 -66.19,15.29 -13.2,5.33 -9.53,4.28 -23.33,6.37 -28.96,4.39 -29.37,1.62 -52.08,12.5 13.22,18.14 14.98,8.01 29.34,29.35 -29.93,-7 -22.7,-20.45 -51.19,-16.68 -17.21,2.28 -75.56,25.71 -16.05,72.22 9.93,7.76 7.7,6.93 15.52,13.84 30.48,26.93 45.48,4.52 81.06,12.81 -16.88,15.94 -7.5,8.26 -17.6,29.3 -18.48,-6.91 -8.39,12.71 -11.69,-17.6l-23.52 0c6.3,23.68 12.3,8.96 5.89,23.47 -27.67,0 -26.24,-1.05 -46.92,-5.87 13.22,-17.97 -3.76,-9.42 23.47,-11.7 -7.13,-9.78 -67.22,-63.65 -78.94,-38.94 -10.04,21.17 23.85,25.88 28.29,49.38 0.02,0.11 -1.54,3.39 0.57,11.96 4.45,18.11 -1.9,7.49 14.83,18.69 -9.02,12.92 -1,7.25 -17.6,11.68l0 23.52c17.27,4.02 17.95,5.87 41.12,5.87 5.99,-28.31 0.93,-12.02 -5.87,-41.07 42.11,11.27 -10.89,46.92 81.85,47.23 49.21,0.15 83.62,4.3 117.66,-12.02 -0.51,-23.31 0.11,-18.16 -11.76,-29.36l-0.01 -0.01z"/>
      <path class="fil0" d="M5967.5 4237l-35.26 0 0 -17.65c23.53,1.95 24.92,3.47 35.26,17.65zm-240.61 -58.69c-20.45,0 -3.45,-55.7 -0.02,-70.46l11.78 0c5.17,22.17 11.74,36.72 11.74,64.59 -16.65,3.87 -10.04,5.87 -23.49,5.87l-0 0zm-82.17 -11.74l0 -11.78c16.73,4.46 8.62,-1.26 17.65,11.78l-17.65 0zm217.15 -23.52c-4.91,18.44 -2.52,4.99 -15.61,25.52 -8.99,14.11 -17.96,39.08 -37.23,39.08 -23.85,0 -30.41,-5.44 -35.24,-23.51 20.69,-4.82 19.29,-5.87 46.95,-5.87 -6,-22.41 -34.26,-40.19 -61.08,-62.26 -40.94,-33.7 -22.83,-8.11 -97.31,-8.11 -13.63,28.36 0.87,14.48 -24.13,34.56 -5.57,4.47 -10.96,7.98 -15.89,13.45 -36.94,40.99 17.62,23.94 -58.99,58.38 -11.8,5.31 -8.75,2.62 -18.35,10.93 35.91,0 170.63,-43.43 202.37,-31.57 20.6,7.69 14.04,19 13.22,41.63 -1.39,38.46 0.15,2.1 68.6,46.07 14.97,9.61 28.52,13.79 50.22,14.27 1.24,-55.72 39.18,-27.82 82.03,-17.43 19.56,4.74 40.18,9.04 56.28,6.73 47.78,-6.83 36.69,11.92 57.65,-10.44 14.51,-15.48 15.27,-37.59 15.27,-60.97 -23.21,17.09 -5.77,26.41 -41.07,29.34 5.28,-22.72 12.66,-16.73 -3.62,-25.71 -24.75,-13.67 -4.07,6.18 -45.13,0.19 -1.42,-0.2 -9.87,-1.12 -11.2,-1.58 -22.81,-7.87 -25.5,-49.22 -33.94,-66.78 -16.37,1.37 -12.1,-2.68 -22.17,7.28 -20.81,20.55 24.38,10.35 4.89,39.13 -26.82,39.62 -53.58,-17.68 -65.31,-40.09l-3.6 -8.14c-0.56,-1.35 -0.96,-3.01 -1.5,-4.38 -4.61,-11.79 3.5,1.83 -4.69,-12.91 -9.19,-16.54 3.54,-3.11 -14.94,-14.37 -9.87,-6.02 -12.98,-5.57 -22.64,-12.58l-40.15 -30.22c3.28,29.95 -2.22,6.33 11.57,23.59l8.53 9.07c18.52,18.37 32.93,25.4 56.19,37.7l0 -0.01z"/>
      <path class="fil3" d="M7387.5 4747.48c25.75,17.36 17.11,28.2 43.49,38.67 33.16,13.17 58.09,10 55.81,34.75 -1.11,12.08 -9.17,19.03 28.07,28.27 50.78,12.57 33.67,-4.93 66.27,-13.65 41.1,21.77 28.71,41.78 82.17,29.34l0 -11.79c-39.82,-3.31 -39,-33.8 -42.02,-40.13 -17.67,-37.07 -73.58,-51.74 -108.61,-61.98l-60.66 -15.26 0 23.47c-31.37,-23.1 9.13,-18.09 -64.55,-35.22l0.02 23.49 0.02 0.02z"/>
      <path class="fil3" d="M5838.4 3409.63c28.7,-10.41 11.07,-24.91 41.05,-46.94 15.38,11.29 8.52,50.34 70.43,17.6 -15.68,-21.5 -34.14,-19.22 -52.81,-46.94 19.15,0.43 75.55,17.49 88.02,-29.38l-111.51 -5.87c-15.04,0 -14.54,12.13 -65.5,16.94 -45.75,4.3 -56.46,-15.59 -54.48,13.83 3.12,46.47 17.79,22.82 40.16,49.09 10.72,12.56 6.31,14.46 17.32,24.43 6.72,6.09 3.63,5.27 14.24,8.01 13.84,3.56 4.46,3.3 13.08,-0.75l0 -0.02z"/>
      <path class="fil3" d="M7094.07 4700.51c0,32.09 -0.3,53.57 21.53,66.55 12.94,7.69 57.98,15.65 78.27,15.65 6.07,-26.08 30.17,-54.56 32.05,-66.48 2.24,-14.25 -6.19,-21.06 -5.35,-32.89 0.83,-11.78 9.26,-13.61 14.37,-35.64 -13.97,-7.39 -19.98,-13.54 -35.22,-17.6l-74.3 54.81c-16.57,13.17 -6.07,13.5 -31.34,15.61l0 -0z"/>
      <path class="fil3" d="M6255.02 5076.1c7.94,-95.51 70.15,-110.63 29.35,-187.81 -18.93,6.83 -5.24,0.09 -22.37,18.76 -31.11,33.91 -24.41,22.07 -59.83,45.78l-5.8 93.47c4.35,43.5 29.24,32.26 58.65,29.81l0.01 -0.02z"/>
      <path class="fil3" d="M4177.78 3444.82c-6.63,-25.03 -45.77,-39.54 -64.57,-41.1l0 29.34c-71.49,-5.96 -29.43,-54.96 -76.24,-23.47 -0.52,-23.05 1.6,-13.77 -5.87,-29.34 -43.63,10.13 -71.79,13.76 -93.93,46.99l111.95 41.12c35.42,18.68 -7.76,10.15 69.81,-0.21 32.69,-4.36 36.96,-8.59 58.85,-23.33l-0.01 0z"/>
      <path class="fil3" d="M6307.78 3538.7c17.32,25.94 39.58,29.36 82.2,29.36 -5.6,-21.04 -43.44,-35.11 14.08,-79.81 62.8,-48.81 22.86,-27.25 98.37,-54.19 25.02,-8.93 39.53,-6.11 45.98,-30.35 -26.01,-14.59 -33.7,1.54 -87.59,12.2 -73.93,14.61 -95.96,37.31 -135.62,93.25 -10.96,15.45 -12.27,10.18 -17.43,29.54l0.02 0z"/>
      <path class="fil0" d="M5867.74 3861.46c-16.73,-4.46 -8.62,1.26 -17.64,-11.78 2.91,-3.54 12.04,-4.39 17.64,-5.87l0 17.64zm0 -52.83c-18.32,27.44 -29.34,17.17 -29.34,64.56 -4.44,2.13 -9.19,3.33 -12.54,5.06 -15.26,7.88 -3.32,1.5 -14.44,9.04 -1.03,0.7 -2.33,1.81 -3.36,2.51l-18.46 10.84c-0.83,0.42 -2.76,1.07 -4,1.85 53.49,12.81 23.92,1.58 61.08,-2.82 24.87,-2.95 21.12,11.57 37.01,-4.28 4.2,-4.19 24.69,-57.52 25.08,-75.05 27.23,-2.27 10.24,6.28 23.47,-11.7 -40.52,-9.44 -35.2,-20.1 -35.2,-58.7 0,-22.82 38.74,-33.93 46.94,-64.52 -56.43,0 -15.09,11.24 -67.19,50.15 -45.89,34.25 -15.93,47.24 -9.04,73.06l0 -0z"/>
      <path class="fil3" d="M6847.63 3315.75c39.09,20.67 63.02,35.2 123.23,35.2 -26.54,49.97 14.44,21.69 14.49,21.68 28.91,-8 36.79,-3.8 61.83,-15.81 -24.87,-37.32 -44.09,-35.36 -70.41,-17.65l0 -29.34 -35.01 -6.75c-6.36,-62.59 -71.32,-30.62 -94.13,12.67l0 0z"/>
      <path class="fil3" d="M5273.73 3684.09c13.15,19.04 18.09,14.33 25.15,27.09 9.44,17.06 -14.88,21.19 58.37,21.19 25.78,0 57.05,-15.23 70.41,-35.24 -11.46,-49.26 -69.3,-33.78 -99.78,-17.63 -17.04,-11.44 -7.83,-11.87 -29.34,-17.6l-24.81 22.18 -0.01 0z"/>
      <path class="fil0" d="M6090.69 4125.47l82.13 0c-37.6,-55.85 -97.81,-41.03 -111.49,-41.03 -5.15,-19.26 -8.5,-19.29 -23.43,-29.34 -21.9,19.02 -78.9,86.07 -2.17,75.13 18.78,-2.67 27.04,-4.77 54.95,-4.77l0.01 0.01z"/>
      <path class="fil0" d="M6260.89 4066.84c0,77 37.73,56.82 30.46,90.57 -3.73,17.35 -13.52,15.79 -7,26.74 13.48,18.41 32.33,16.5 52.76,11.74 -0.97,-43.73 -28.3,-34.97 5.87,-64.5 -27.04,-2.25 -46.34,-31.85 -46.95,-58.72 16.4,-4.38 26.53,-11.65 35.22,-23.43 -40.32,0 -41.11,10.78 -70.37,17.6l0 0.01z"/>
      <path class="fil3" d="M7880.37 5392.96c0,26.45 28.46,33.38 61.35,-9.08 23.44,-30.27 38.45,-26.28 38.45,-78.96 -40.91,0 -26.2,0.96 -40.56,18.18 -37.98,45.53 -59.24,37.96 -59.24,69.87l-0.01 -0.01z"/>
      <path class="fil3" d="M7246.65 4706.38c-28.39,59.22 -14.69,58.35 -11.74,93.93 17.7,-4.7 12.91,0.13 17.64,-17.6 19.17,12.9 8.12,15.36 35.2,17.6 -0.69,-30.86 -6,-22.42 -11.74,-46.94 16.04,-5.82 12.09,0.24 17.6,-23.52 -38.07,0 -32.28,14.11 -46.95,-5.81 12.25,0 37.01,1.62 47.5,0.59 21.22,-2.11 21.17,-3.2 22.91,-24.11 -25.22,2.09 -36.4,5.87 -70.46,5.87l0.02 0z"/>
      <path class="fil3" d="M4300.99 3532.83c-1.28,-15.64 -2.29,-15.72 -6.78,-28.41 -3.52,-9.94 0.38,-29.8 -33.46,-28.81 -2,0.06 -17.06,3.89 -21.73,6.94 -34.02,22.19 15.55,17.32 -26.07,20.92 0.76,9.15 -5.72,22.61 35.38,41.54 31.4,14.47 32.91,1.12 52.66,-12.19l0 0.01z"/>
      <path class="fil0" d="M6190.42 4542.08c0,-63.2 -34.06,-73.47 -48.77,-103.75 -14.89,-30.65 -33.58,-76.12 -62.67,-95.7 0.5,22.59 58.45,139.34 70.54,158.26 10.33,16.17 24.93,30.45 40.9,41.2z"/>
      <path class="fil3" d="M7999.46 5244.87c-21.78,-22.28 1.35,-24.95 -36.94,-33.83 4.72,36.99 23.26,33.66 20.19,56.7 -1.81,13.54 -7.65,9.91 -3.52,26.36 2.86,11.42 6.11,-2.64 6.8,28.47 23.47,-1.95 24.29,-6.87 35.58,-23.15 43.22,-62.28 -0.61,-32.56 -22.11,-54.54z"/>
      <path class="fil3" d="M4183.61 3409.59c8.89,33.41 59.34,56.41 99.8,46.99l0 -41.12c-21.32,-10.22 -56.57,-5.87 -99.8,-5.87z"/>
      <path class="fil3" d="M7475.49 3444.82c0,38.14 97.45,9.17 111.54,5.89l0 -17.65c-13.42,-3.12 -30.77,-8.98 -41.87,-9.5 -36.87,-1.73 -69.67,-7.87 -69.67,21.26l0 0.01z"/>
      <path class="fil3" d="M4453.54 4424.77c35.24,19.78 23.3,-13.14 74.44,13.55 18.46,9.64 28.54,21.66 54.68,21.66 22.48,0 2.15,1.8 17.62,-5.87 -11.55,-31.97 -117.73,-71.28 -146.74,-29.34z"/>
      <path class="fil3" d="M4230.58 3380.29c80.16,0 9.78,-52.86 -58.7,-52.86 1.5,18.18 4.09,28.07 16.59,36.27l42.11 16.59z"/>
      <path class="fil3" d="M6325.39 3309.88c17.98,-4.17 22.57,-9.1 35.24,-17.6 12.94,9.02 7.27,0.99 11.72,17.6l47.05 0c-11.99,-17.91 -15.43,-38.86 -5.94,-58.72 -18.12,4.82 -9.57,3.9 -24.62,10.61 -24.09,10.76 -54.63,23.72 -63.43,48.11l-0.02 0z"/>
      <path class="fil0" d="M6325.44 4389.53c23.24,-11.19 34.09,-3.42 41.03,-29.3 -58.42,0 -56.06,-36.81 -93.83,-46.94 3.79,45.42 28.69,40.22 52.81,76.24l0 0z"/>
      <path class="fil3" d="M4042.78 3368.52c4.15,15.58 9.37,23.51 52.84,23.51 17.16,0 23.49,-26.02 23.49,-46.99 -80.25,0 -3.67,23.47 -76.33,23.47l0 0.01z"/>
      <path class="fil3" d="M7628.09 5293.17c-16.31,10.87 -5.37,7.09 -24.36,10.98 -15.45,3.15 -18.64,-5.53 -25.94,8.64 -3.9,7.56 11.43,29.39 15.05,44.97 19.98,-1.65 21.51,-4.46 35.26,-11.74l0 -52.86 -0 0.01z"/>
      <path class="fil3" d="M6225.63 3286.37c0.98,2.72 -5.98,17.33 35.63,23.12 19.84,2.75 35.22,5.88 52.44,6.26 -1.05,-0.91 -2.82,-3.61 -3.26,-2.63l-14.34 -14.97c30.72,-2.63 10.58,5.63 17.6,-11.78 -23.04,-19.24 -13.11,0 -88.07,0z"/>
      <path class="fil3" d="M4600.23 4477.58c34.06,16.33 39.78,8.52 76.33,0 -3.52,-13.2 -0.48,-13.28 -13.91,-21.36 -17.93,-10.78 -37.75,-12.26 -51.69,2.71l-10.75 18.64 0.01 0.01z"/>
      <path class="fil3" d="M5726.89 4178.32c13.46,0 6.85,-2 23.49,-5.87 0,-27.86 -6.58,-42.41 -11.74,-64.59l-11.78 0c-3.43,14.74 -20.43,70.46 0.02,70.46l0 -0z"/>
      <path class="fil3" d="M6419.27 3280.5c2.12,25.54 -0.47,26.34 60.21,13.36 21.53,-4.6 16.63,0.91 21.98,-19.22 -14.59,0 -19.96,0.97 -32.94,2.4 -21.85,2.43 -19.54,-8.02 -49.25,3.46l0.01 0z"/>
      <path class="fil3" d="M6695.09 4594.92c-0.06,42.51 -10.87,51.93 29.36,52.83 0,-33.5 2.72,-50.22 -29.36,-52.83z"/>
      <path class="fil0" d="M6096.59 3708.85c18.48,-6.91 8.39,12.72 11.68,-17.6 25.8,0.57 18.31,3.96 41.08,5.87 -6.56,-24.46 -0.96,-14.09 -26.74,-20.14 -15.09,-3.54 -25.06,-6.19 -37.76,-9.15 1.5,17.96 5.56,28.18 11.74,41.03l-0 -0.01z"/>
      <path class="fil3" d="M7293.61 4841.37c-1.39,16.09 -0.59,12.78 -5.89,23.49 17.7,0 17.36,2.36 31.04,-4.26 35.17,-17.04 22.91,-42.44 -25.16,-19.24l0 0.02z"/>
      <path class="fil3" d="M7628.05 4800.27c2.95,5.27 3.78,11.79 11.76,11.79 31.4,0 50.33,-5.13 52.84,-35.26 -32.89,2.74 -18.81,19.67 -64.59,23.47l-0.01 0z"/>
      <path class="fil3" d="M7633.94 3462.45c15.85,0 16.19,-2.81 29.36,-5.87 -13.95,-19.13 -32.34,-17.66 -64.59,-17.66 4.82,18.08 11.39,23.52 35.24,23.52l-0 0z"/>
      <path class="fil3" d="M7540.06 3503.52l23.49 0 0 -17.65c-24.56,-5.71 -16.12,-11.04 -46.99,-11.74 1.51,18.24 4.67,29.38 23.49,29.38l0.02 0z"/>
      <path class="fil0" d="M4518.1 3433.09c-4.67,-2.95 -2.74,-2.8 -11.69,-5.91l-82.15 -5.76c-17.69,2.34 -14.96,4.26 -23.49,11.64l117.33 0.02 -0 0.01z"/>
      <path class="fil3" d="M7340.53 4724.01c0,24.85 0.53,15.28 11.78,23.49 9.54,-40.95 18.89,-35.54 5.87,-58.73 -11.93,8.69 -17.66,13.44 -17.66,35.24l0.01 0z"/>
      <path class="fil3" d="M7246.65 4424.77l11.78 0c5.71,-24.56 11.05,-16.12 11.74,-46.99l-17.64 0c-7.82,33.59 -13.95,12.27 -5.87,46.99l-0 0z"/>
      <path class="fil0" d="M4130.81 3632.56c-23.63,-32.09 -29.48,8.05 -76.24,-23.42 2.21,20.12 3.96,21.2 23.4,23.47 12.94,1.51 38.54,-0.06 52.84,-0.06l-0 0z"/>
      <path class="fil3" d="M8044.67 3544.55l0 17.65 52.86 -5.87c-19.92,-29.89 -16.57,-15.57 -52.86,-11.78z"/>
      <path class="fil0" d="M4394.9 4037.45l64.52 0c-12.83,-19.03 -9.72,-13.03 -29.35,-23.43l-35.19 23.43 0.01 0z"/>
      <path class="fil3" d="M8027.07 4982.22c14.52,-3.87 10.77,-3.01 23.67,-18.11 4.83,-5.65 24.61,-12.5 5.04,-19.57 -1.31,-0.47 -43.54,5.57 -28.7,37.69l-0 -0.01z"/>
      <path class="fil3" d="M4782.13 5504.46c24.7,0 23.74,2.47 41.11,-5.87 -2.31,-8.7 -1.02,-17.64 -11.76,-17.64 -18.04,0 -25.26,8.09 -29.36,23.51l0 -0z"/>
      <path class="fil3" d="M7234.91 4864.87l17.64 0c4.72,-17.68 -0.07,-12.89 17.6,-17.6 -12.54,-17.2 -3.7,-7.2 -23.51,-17.66 -9.03,13.49 -11.22,11.82 -11.74,35.26l0 0z"/>
      <path class="fil3" d="M7839.3 4999.77c12.34,23.42 11.07,28.28 41.12,35.26 -5.48,-20.59 -16.69,-33.23 -41.12,-35.26z"/>
      <path class="fil3" d="M3274.09 3738.24c29.97,2.49 27.32,17.99 35.26,-11.79 -13.82,-3.22 -17.37,-5.46 -35.26,-5.87l0 17.66 0 -0z"/>
      <path class="fil3" d="M4541.56 4483.46c13.39,3.12 13.52,4.55 29.39,5.87 -0.95,-11.41 0.3,-23.51 -11.76,-23.51 -13.93,0 -17.26,4.05 -17.62,17.64l-0.01 0z"/>
      <path class="fil3" d="M7375.76 4759.22c-16.14,1.35 -12.76,0.54 -23.49,5.85 13.03,17.87 10.12,11.78 41.13,11.78l-17.62 -17.63 -0.02 0z"/>
      <path class="fil3" d="M5932.24 4237l35.26 0c-10.33,-14.18 -11.72,-15.7 -35.26,-17.65l0 17.65z"/>
      <path class="fil3" d="M6266.7 3615.01c27.31,-2.27 10.31,6.3 23.52,-11.76 -13.2,-18.06 3.79,-9.49 -23.52,-11.76l0 23.52 0 -0.01z"/>
      <path class="fil3" d="M3497.12 4471.71c11.32,-23.62 6.81,-23.7 -17.65,-29.39 1.95,23.52 2.16,19.07 17.65,29.39z"/>
      <path class="fil0" d="M4494.66 4090.27c15.99,-5.8 9.65,-2.95 23.43,-23.43l-29.32 0c1.18,13.61 1.31,14.96 5.89,23.43l0 0z"/>
      <path class="fil3" d="M4271.68 3321.61c-6.29,-23.63 -1.57,-17.04 -29.38,-17.64 6.28,23.62 1.56,17.03 29.38,17.64z"/>
      <path class="fil3" d="M4465.27 3755.84c27.81,-0.61 23.09,5.98 29.38,-17.66 -19.26,0.43 -28.85,-1.89 -29.38,17.66z"/>
      <path class="fil0" d="M6612.96 3614.99c0,11.39 -7.99,19.11 -11.74,35.19l11.7 0c8.44,-36.24 11.44,-40.06 -5.83,-52.76 1.84,6.89 5.87,15.93 5.87,17.58z"/>
      <path class="fil3" d="M6566.02 5463.39c-1.8,-21.64 -1.88,-21.72 -23.52,-23.51 3.72,21.77 -6.23,16.61 23.52,23.51z"/>
      <path class="fil3" d="M4512.21 3755.82c0,22.48 -1.8,2.15 5.87,17.62l16.95 -12.59 -15.68 -18.07c-1.39,1.41 -7.14,12.22 -7.14,13.03l0 0.01z"/>
      <path class="fil3" d="M7211.43 4606.67c23.71,-6.31 19.17,-9.99 29.38,-29.38 -23.69,6.3 -19.16,9.99 -29.38,29.38z"/>
      <path class="fil3" d="M7898.02 4952.89c-5.15,-19.35 -8.49,-19.37 -23.52,-29.38 3.09,24.2 1.35,23.49 23.52,29.38z"/>
      <path class="fil3" d="M4177.78 3444.82c6.75,18.78 -5.97,5.19 17.62,17.63 9.3,-20.14 2.56,-27.02 -17.62,-17.63z"/>
      <path class="fil3" d="M7786.49 4864.87c21.21,-5.65 15.74,-0.52 17.64,-23.52 -18.3,4.87 -17.64,0.83 -17.64,23.52z"/>
      <path class="fil3" d="M4518.09 3884.94c23,-1.91 17.87,3.56 23.51,-17.64 -16.98,1.41 -23.03,-0.15 -23.51,17.64z"/>
      <path class="fil3" d="M4189.53 3397.89c-5.65,-21.22 -0.52,-15.74 -23.52,-17.64 5.64,21.22 0.51,15.74 23.52,17.64z"/>
      <path class="fil3" d="M5099 5533.76c10.34,19.72 -10.88,14.8 23.52,17.65 -5.64,-21.22 -0.52,-15.74 -23.52,-17.65z"/>
      <path class="fil3" d="M3332.78 3796.87c13.19,18.08 -3.79,9.51 23.51,11.78 -3.69,-13.85 -11.31,-25.62 -23.51,-11.78z"/>
      <path class="fil3" d="M4688.26 4483.46l23.53 0c-7.18,-26.92 -13.79,-18.07 -23.53,0z"/>
      <path class="fil0" d="M4072.15 4319.13c-5,-21.29 -3.27,-18.78 -17.58,-29.32 1.94,23.33 2.39,19.08 17.58,29.32z"/>
      <path class="fil0" d="M4306.89 3620.83l11.69 0 0.01 -23.43c-14.96,11.02 -11.7,-2 -11.7,23.43z"/>
      <path class="fil0" d="M6096.59 4060.92l23.43 0 0 -11.69c-13.74,1.14 -21.32,-0.61 -23.43,11.69z"/>
      <path class="fil3" d="M7716.08 4817.93l11.78 0c-2.27,-27.31 6.31,-10.33 -11.78,-23.52l0 23.52z"/>
      <path class="fil0" d="M4430.11 4119.6c7.17,-5.28 9.43,-1.96 10.02,-11.78 0.06,-0.85 -0.13,-2.8 -0.29,-3.69 -5.39,-30.16 -0.19,-2.78 -9.73,-13.83l0 29.3z"/>
      <path class="fil3" d="M5850.09 3849.68c9.02,13.05 0.91,7.32 17.64,11.78l0 -17.64c-5.6,1.48 -14.73,2.33 -17.64,5.87z"/>
      <path class="fil0" d="M5990.92 3796.91l-29.29 0c5.27,7.17 1.96,9.43 11.78,10.02 0.84,0.05 2.8,-0.13 3.68,-0.29 0.96,-0.17 2.83,-1.01 3.78,-1.39 20.61,-8.18 -1.9,1.97 10.05,-8.35l0 0.01z"/>
      <polygon class="fil3" points="5509.76,3767.57 5521.54,3767.57 5521.54,3749.92 5509.76,3749.92 "/>
      <polygon class="fil3" points="7434.41,4817.93 7446.19,4817.93 7446.19,4800.27 7434.41,4800.27 "/>
      <polygon class="fil3" points="7322.93,4776.84 7340.57,4776.84 7340.57,4765.06 7322.93,4765.06 "/>
      <path class="fil3" d="M7745.41 4841.39l11.78 0c-4.11,-17.24 0.78,-8.49 -11.78,-17.66l0 17.66z"/>
      <path class="fil3" d="M4541.56 4395.43l11.78 0c-4.11,-17.24 0.78,-8.48 -11.78,-17.64l0 17.64z"/>
      <path class="fil3" d="M7721.94 3990.55c17.24,-4.12 8.47,0.78 17.64,-11.78l-17.64 0 0 11.78z"/>
      <path class="fil3" d="M5644.72 4166.58l17.65 0c-9.03,-13.05 -0.91,-7.33 -17.65,-11.78l0 11.78z"/>
      <path class="fil0" d="M5926.41 3843.85c-1.37,3.08 -18.61,3.57 11.7,11.68 -3.13,-11.69 7.5,-2.34 -4.7,-11.99 -10.35,-8.18 0.91,-3.2 -6.99,0.31l-0 0z"/>
      <path class="fil3" d="M4541.56 3744.11c28.22,-14.88 13.82,-5.96 11.78,-11.79 -6.02,-2.64 1.58,-10.87 -7.06,-0.29 -6.72,8.24 -4.08,-10.8 -4.72,12.07z"/>
      <path class="fil3" d="M3338.65 3920.09c-2.72,2.71 -13.75,-0.52 -0.11,7.24 5.89,3.35 14.45,1.02 7.36,-7.36 -9.21,-10.85 -3.2,-3.92 -7.24,0.11z"/>
      <path class="fil3" d="M4723.46 3767.52c-2.71,2.72 -13.75,-0.51 -0.11,7.25 5.89,3.35 14.45,1.02 7.36,-7.36 -9.2,-10.86 -3.2,-3.93 -7.24,0.11z"/>
      <path class="fil3" d="M7809.96 4864.82c-2.72,2.72 -13.75,-0.51 -0.11,7.25 5.89,3.35 14.44,1.02 7.36,-7.36 -9.2,-10.86 -3.2,-3.93 -7.24,0.11z"/>
      <path class="fil3" d="M4371.43 4741.64l0 -17.66c-17.6,12.66 -19.02,4.48 0,17.66z"/>
      <path class="fil0" d="M4435.98 4084.4c12.89,-9 7.26,-1.01 11.7,-17.56 -9.64,6.73 -11.24,1.28 -11.7,17.56z"/>
      <path class="fil3" d="M7774.75 4835.51c1.23,6.73 12.94,12.87 7.93,1.18 -2.15,-5.01 -10.73,-16.48 -7.93,-1.18z"/>
      <path class="fil3" d="M5586.04 3791.03c1.23,6.73 12.94,12.87 7.93,1.18 -2.15,-5 -10.73,-16.48 -7.93,-1.18z"/>
      <path class="fil3" d="M7393.33 4829.64c-2.3,12.63 8.49,4.04 7.94,-1.19 -0.13,-1.24 -5.19,-13.87 -7.94,1.19z"/>
      <path class="fil0" d="M6601.22 3579.76c18.5,-6.91 8.39,12.7 11.7,-17.56l-11.7 17.56z"/>
      <polygon class="fil3" points="7375.76,4759.22 7387.5,4747.48 7375.73,4747.46 "/>
      <path class="fil3" d="M7076.47 4671.2c0,6.93 12.68,13.28 9.13,0 -3.56,-13.3 14.97,-0.15 -2.72,-1.75 -7.42,-0.67 -6.4,-10.22 -6.4,1.75l-0 0z"/>
      <path class="fil3" d="M7299.44 4753.35c0,6.93 12.68,13.28 9.13,0 -3.56,-13.3 14.98,-0.15 -2.72,-1.74 -7.42,-0.67 -6.4,-10.24 -6.4,1.74l-0 0z"/>
      <path class="fil3" d="M3315.17 3931.85c0,6.93 12.68,13.28 9.13,0 -3.56,-13.31 14.97,-0.15 -2.72,-1.75 -7.42,-0.67 -6.4,-10.22 -6.4,1.75l-0 0z"/>
      <path class="fil3" d="M6360.59 5017.41c0,11.97 -1.02,2.41 6.4,1.75 17.7,-1.58 -0.84,11.57 2.72,-1.75 3.56,-13.28 -9.12,-6.93 -9.12,0l-0.01 0z"/>
      <path class="fil3" d="M6929.78 4712.28c0,6.93 12.67,13.28 9.11,0 -3.56,-13.3 14.97,-0.17 -2.72,-1.74 -7.42,-0.67 -6.39,-10.22 -6.39,1.74z"/>
      <path class="fil0" d="M7287.76 4571.43c0.25,1.94 6.47,1.31 6.98,1.13 1.41,-0.53 10.15,13.49 2.54,-1.56 -0.17,-0.35 -10.92,-10.8 -9.5,0.43l-0.02 0z"/>
      <path class="fil3" d="M7616.31 4078.57c0.24,1.94 6.49,1.31 7.01,1.11 1.52,-0.57 10.24,13.67 2.56,-1.59 -0.02,-0.04 -0.82,-1.02 -0.92,-1.05 -8.94,-2.31 -9.93,-8.88 -8.65,1.52l0 0.01z"/>
      <path class="fil3" d="M7293.61 4841.37l-10.57 -12.95c2.88,16.5 -3.38,7.76 10.57,12.95z"/>
      <path class="fil3" d="M5345.48 3374.4l12.94 -10.57c-16.49,2.88 -7.76,-3.37 -12.94,10.57z"/>
      <path class="fil3" d="M6342.99 4553.81l0.17 2.63c5.44,-0.46 -8.17,11.2 1.84,-0.61l-2 -2.02 -0 0z"/>
    </g>
  </g>
</svg>