<svg xmlns="http://www.w3.org/2000/svg" viewBox="20 202 540 540" xml:space="preserve" style="shape-rendering: geometricPrecision; text-rendering: geometricPrecision; fill-rule: evenodd; clip-rule: evenodd;">
  <defs>
    <style>
      .fil1 { fill: #373535 }
      .fil3 { fill: #F58735 }
      .fil4 { fill: #858789 }
    </style>
  </defs>
  <g>
    <path class="fil1" d="M251.35 499.07c-2.65,16.35 -5.3,32.71 -7.95,49.06 53.37,0 106.74,0 160.12,0 25.46,0.59 50.28,-4.51 63.7,-24.53 15.97,-23.84 20.39,-51.5 8.61,-74.03 -10.66,-14.67 -26.93,-17.87 -44.77,-17.9 -33,0 -66.03,1.46 -99,0 -10.88,-0.47 -13.81,-6.13 -11.93,-11.92 3.13,-9.61 13.05,-12.34 26.57,-11.51 48.92,0 97.85,0 146.77,0 3,-16.6 6.01,-33.21 9.01,-49.82 -17.64,0 -35.28,0 -52.92,0 -5.12,7.95 -10.25,15.9 -15.38,23.85 -25.26,6.49 -51.81,10.38 -80.09,10.83 -27.52,-1.28 -55.06,-2.76 -82.02,5.03 -29.65,9.96 -55.34,37.38 -63.75,64.9 -8.41,27.52 -8.22,34.21 -24.78,36.76 -28.79,4.44 -58.78,4.26 -87.21,0 -13.13,-1.97 -11.95,-18.38 -7.28,-42.06 -18.64,0 -37.28,0 -55.93,0 -3.37,30.16 -15.68,85.72 29.36,90.4 43.8,4.56 88.11,1.63 132.11,0 24.79,-0.91 42.77,-14.72 52.95,-38.53 5.9,-22.04 11.79,-44.09 17.69,-66.14 3.98,20.79 17.15,31.64 38.38,33.78 38.25,0 76.49,0 114.73,0 10.02,-1.03 13.7,15.81 -2.23,20.94 -54.44,0 -108.87,0 -163.3,0 -0.49,0.29 -0.97,0.59 -1.46,0.89z"/>
    <path class="fil3" d="M234.72 386.92c-22.37,27.81 -39.01,58.25 -40.97,95.42 17.66,-45.4 36.35,-69.43 58.81,-82.62 23.98,-14.08 49.15,-13.84 81.97,-12.28 32.81,1.55 67.51,-3.55 95.51,-9.31 12.88,-15.06 20.13,-32.52 36.62,-45.16 -33.25,13.54 -57.37,21.63 -88.55,23.39 -70.35,3.99 -108.65,-10.85 -143.39,30.56z"/>
    <path class="fil4" d="M218.14 401.09c10.41,-16.46 24.68,-30.84 43.7,-42.67 -12.75,0 -25.49,0 -38.24,0 -1.82,14.22 -3.64,28.45 -5.46,42.67z"/>
  </g>
</svg>
